# xmcd CD database file
#
# Track frame offsets:
#	150
#	11482
#	23790
#	33994
#	43354
#	53251
#	62131
#	74590
#	81778
#	89236
#	102477
#	110459
#	122770
#	133323
#	142792
#	152734
#	162991
#	172945
#	183870
#	194515
#	204309
#	213220
#
# Disc length: 2980 seconds
#
# Revision: 0
# Processed by: cddbd v1.5.2PL0 Copyright (c) Steve Scherf et al.
# Submitted via: CDex 1.50
#
DISCID=350ba216
DTITLE=Chet Atkins - Finger - Style Guitar... Plus
DYEAR=2006
DGENRE=Country
TTITLE0=Swedish Rhapsody
TTITLE1=Liza
TTITLE2=In the Mood
TTITLE3=Heartaches
TTITLE4=Glow Worm
TTITLE5=Dance of the Golden Rod
TTITLE6=Petite Waltz
TTITLE7=Adelita
TTITLE8=Gavotte in D
TTITLE9=Unchained Melody
TTITLE10=Waltz in A-Flat
TTITLE11=Malagueña
TTITLE12=The Lady Loves Me
TTITLE13=New Spanish Two Step
TTITLE14=Reminiscing
TTITLE15=Warm All Over
TTITLE16=Big D
TTITLE17=Don't Cry
TTITLE18=Standing on the Corner
TTITLE19=Trambone
TTITLE20=Peanut Vendor
TTITLE21=Blue Echo
EXTD=YEAR: 2006
EXTT0=
EXTT1=
EXTT2=
EXTT3=
EXTT4=
EXTT5=
EXTT6=
EXTT7=
EXTT8=
EXTT9=
EXTT10=
EXTT11=
EXTT12=
EXTT13=
EXTT14=
EXTT15=
EXTT16=
EXTT17=
EXTT18=
EXTT19=
EXTT20=
EXTT21=
PLAYORDER=
